<svg xmlns="http://www.w3.org/2000/svg" version="1.1" xmlns:xlink="http://www.w3.org/1999/xlink" xmlns:svgjs="http://svgjs.dev/svgjs" width="1000" height="1000" viewBox="0 0 1000 1000">
<rect width="1000" height="1000" fill="transparent">
</rect>
<g transform="matrix(0.7,0,0,0.7,150.09902292989443,178.96017083672535)">
<svg viewBox="0 0 269 247" data-background-color="#272127" preserveAspectRatio="xMidYMid meet" height="918" width="1000" xmlns="http://www.w3.org/2000/svg" xmlns:xlink="http://www.w3.org/1999/xlink">
<g id="tight-bounds" transform="matrix(1,0,0,1,-0.038053097345141396,-0.10000341841137583)">
<svg viewBox="0 0 269.0761061946903 247.2" height="247.2" width="269.0761061946903">
<g>
<svg viewBox="0 0 269.0761061946903 247.2" height="247.2" width="269.0761061946903">
<g>
<svg viewBox="0 0 269.0761061946903 247.2" height="247.2" width="269.0761061946903">
<g id="textblocktransform">
<svg viewBox="0 0 269.0761061946903 247.2" height="247.2" width="269.0761061946903" id="textblock">
<g>
<svg viewBox="0 0 269.0761061946903 247.2" height="247.2" width="269.0761061946903">
<g transform="matrix(1,0,0,1,0,0)">
<svg width="269.0761061946903" viewBox="1.2699999809265137 -37.5 42.040000915527344 38.619998931884766" height="247.2" data-palette-color="#b842dc">
<path d="M22.75-7.67L22.75-7.67Q22.75-6.74 22.27-5.86L22.27-5.86Q21.78-5.03 19.97-3.91 18.16-2.78 15.97-1.78 13.77-0.78 11.72-0.07 9.67 0.63 8.69 0.63L8.69 0.63Q8.01 0.63 7.08 0.32 6.15 0 5.22-0.49 4.3-0.98 3.54-1.61 2.78-2.25 2.44-2.83L2.44-2.83Q2.25-3.17 2.08-4.2 1.9-5.22 1.78-6.59 1.66-7.96 1.56-9.5 1.46-11.04 1.39-12.43 1.32-13.82 1.29-14.89 1.27-15.97 1.27-16.46L1.27-16.46Q1.27-18.26 1.39-20.61 1.51-22.95 1.86-25.32 2.2-27.69 2.86-29.86 3.52-32.03 4.64-33.54L4.64-33.54Q4.98-33.98 6.01-34.47 7.03-34.96 8.42-35.4 9.81-35.84 11.43-36.23 13.04-36.62 14.53-36.89 16.02-37.16 17.24-37.33 18.46-37.5 19.09-37.5L19.09-37.5Q19.82-37.5 20.48-37.18 21.14-36.87 21.61-36.33 22.07-35.79 22.34-35.13 22.61-34.47 22.61-33.74L22.61-33.74Q22.61-33.11 22.44-32.67 22.27-32.23 21.92-31.69L21.92-31.69Q21.44-31.05 19.87-30.18 18.31-29.3 16.48-28.44 14.65-27.59 12.96-26.9 11.28-26.22 10.6-25.93L10.6-25.93Q10.4-24.8 10.18-23.66 9.96-22.51 9.86-21.34L9.86-21.34Q11.38-22.12 13.28-22.8 15.19-23.49 16.89-23.49L16.89-23.49Q20.36-23.49 20.36-20.07L20.36-20.07Q20.36-19.24 20.04-18.6 19.73-17.97 19.21-17.48 18.7-16.99 18.04-16.63 17.38-16.26 16.75-15.92L16.75-15.92Q15.19-15.09 13.48-14.48 11.77-13.87 10.06-13.28L10.06-13.28Q9.96-12.89 9.86-12.43 9.77-11.96 9.77-11.52L9.77-11.52Q9.77-10.84 9.86-10.16 9.96-9.47 10.06-8.79L10.06-8.79Q10.64-8.98 11.94-9.42 13.23-9.86 14.65-10.3 16.06-10.74 17.38-11.06 18.7-11.38 19.34-11.38L19.34-11.38Q20.07-11.38 20.7-11.06 21.34-10.74 21.78-10.23 22.22-9.72 22.49-9.03 22.75-8.35 22.75-7.67ZM43.31-18.16L43.31-18.16 43.31-16.94Q43.26-15.14 43.11-13.09 42.97-11.04 42.62-9.03 42.28-7.03 41.6-5.2 40.92-3.37 39.74-1.95 38.57-0.54 36.86 0.29 35.15 1.12 32.71 1.12L32.71 1.12Q30.08 1.12 28.1 0 26.12-1.12 24.8-2.95 23.48-4.79 22.85-7.06 22.21-9.33 22.21-11.67L22.21-11.67Q22.21-12.7 22.43-13.96 22.65-15.23 23.19-16.33 23.73-17.43 24.58-18.19 25.44-18.95 26.76-18.95L26.76-18.95Q28.17-18.95 28.88-18.16 29.59-17.38 29.9-16.24 30.22-15.09 30.32-13.75 30.42-12.4 30.56-11.25 30.71-10.11 31.08-9.33 31.44-8.54 32.32-8.54L32.32-8.54Q33.35-8.54 33.93-9.42 34.52-10.3 34.79-11.5 35.06-12.7 35.13-13.92 35.2-15.14 35.2-15.82L35.2-15.82Q35.2-18.55 34.74-21.17 34.27-23.78 33.59-26.46L33.59-26.46Q33.25-27.83 32.86-29.25 32.47-30.66 32.47-32.08L32.47-32.08Q32.47-33.74 33.35-34.79 34.23-35.84 35.94-35.84L35.94-35.84Q37.2-35.84 37.94-35.33 38.67-34.81 39.4-33.84L39.4-33.84Q40.52-32.32 41.28-30.37 42.04-28.42 42.48-26.32 42.92-24.22 43.11-22.09 43.31-19.97 43.31-18.16Z" opacity="1" transform="matrix(1,0,0,1,0,0)" fill="#b842dc" class="undefined-text-0" data-fill-palette-color="primary" id="text-0">
</path>
</svg>
</g></svg>
</g>
</svg>
</g>
</svg>
</g>
<g>
</g>
</svg>
</g>
<defs>
</defs>
</svg>
<rect width="269.0761061946903" height="247.2" fill="none" stroke="none" visibility="hidden">
</rect>
</g>
</svg>
</g>
</svg>